# xmcd
#
# Track frame offsets:
#	150
#	18405
#	40546
#	58149
#	77353
#	95010
#	112419
#	132292
#	147405
#	167148
#	185553
#	202528
#	221002
#	242024
#	257107
#	271706
#
# Disc length: 3868 seconds
#
# Revision: 9
# Processed by: cddbd v1.5.2PL0 Copyright (c) Steve Scherf et al.
# Submitted via: audiograbber 1.83.01
#
DISCID=e10f1a10
DTITLE=Taylor Swift - Fearless
DYEAR=2009
DGENRE=Country
TTITLE0=Fearless
TTITLE1=Fifteen
TTITLE2=Love Story
TTITLE3=Hey Stephen
TTITLE4=White Horse
TTITLE5=You Belong With Me
TTITLE6=Breathe (feat. Colbie Caillat)
TTITLE7=Tell Me Why
TTITLE8=You´re Not Sorry
TTITLE9=The Way I Loved You
TTITLE10=Forever and Always
TTITLE11=The Best Day
TTITLE12=Change
TTITLE13=Our Song
TTITLE14=Teardrops On My Guitar
TTITLE15=Should´ve Said No
EXTD=by Diddl
EXTT0=
EXTT1=
EXTT2=
EXTT3=
EXTT4=
EXTT5=
EXTT6=
EXTT7=
EXTT8=
EXTT9=
EXTT10=
EXTT11=
EXTT12=
EXTT13=
EXTT14=
EXTT15=
PLAYORDER=
